HIERARCHY
ROOT Hips
{
	OFFSET 0.000000 0.000000 0.000000
	CHANNELS 6 Xposition Yposition Zposition Zrotation Yrotation Xrotation 
	JOINT LHipJoint
	{
		OFFSET 0.000000 0.000000 0.000000
		CHANNELS 3 Zrotation Yrotation Xrotation
		JOINT LeftUpLeg
		{
			OFFSET 1.363060 -1.794630 0.839290
			CHANNELS 3 Zrotation Yrotation Xrotation
			JOINT LeftLeg
			{
				OFFSET 2.448110 -6.726130 0.000000
				CHANNELS 3 Zrotation Yrotation Xrotation
				JOINT LeftFoot
				{
					OFFSET 2.562200 -7.039590 0.000000
					CHANNELS 3 Zrotation Yrotation Xrotation
					JOINT LeftToeBase
					{
						OFFSET 0.157640 -0.433110 2.322550
						CHANNELS 3 Zrotation Yrotation Xrotation
						End Site
						{
							OFFSET 0.000000 0.000000 0.000000
						}
					}
				}
			}
		}
	}
	JOINT RHipJoint
	{
		OFFSET 0.000000 0.000000 0.000000
		CHANNELS 3 Zrotation Yrotation Xrotation
		JOINT RightUpLeg
		{
			OFFSET -1.305520 -1.794630 0.839290
			CHANNELS 3 Zrotation Yrotation Xrotation
			JOINT RightLeg
			{
				OFFSET -2.542530 -6.985550 0.000000
				CHANNELS 3 Zrotation Yrotation Xrotation
				JOINT RightFoot
				{
					OFFSET -2.568260 -7.056230 0.000000
					CHANNELS 3 Zrotation Yrotation Xrotation
					JOINT RightToeBase
					{
						OFFSET -0.164730 -0.452590 2.363150
						CHANNELS 3 Zrotation Yrotation Xrotation
						End Site
						{
							OFFSET 0.000000 0.000000 0.000000
						}
					}
				}
			}
		}
	}
}
MOTION
Frames: 14
Frame Time: 0.008333
3.602867 16.971233 -0.209873 -176.425355 -86.504665 -174.189657 -10.452285 0.321367 1.761074 -7.462399 0.145145 -38.489156 -0.537094 2.171663 47.167202 3.560977 18.736255 -14.470230 -1.901900 0.000000 -1.617500 7.749969 -1.691572 1.810183 15.837544 4.970805 -5.158132 2.701200 0.411395 15.973680 -2.748028 -6.834735 -21.564601 2.079000 0.000000 -5.656099
3.354024 17.021060 -0.263929 163.078310 -87.277982 -153.710310 -10.309681 -0.115747 1.879135 -8.652980 -0.422691 -37.879075 -0.674797 1.592700 42.211609 3.594074 18.665978 -13.564228 -1.556300 -0.000001 -2.546500 7.885319 -2.086599 1.796535 14.800478 4.283675 -3.058556 2.687675 0.510086 12.975471 -2.584414 -6.722084 -20.223995 1.782899 -0.000000 -6.441600
3.104781 17.064460 -0.313764 152.009386 -87.448913 -142.725447 -9.819876 -0.233806 1.944303 -9.667264 -0.543461 -37.137848 -0.873538 1.084276 37.027639 3.545617 18.282280 -12.325506 -1.075200 -0.000000 -4.110400 8.416026 -2.318445 1.773953 13.922407 3.491818 -0.953245 2.624585 0.627107 10.164142 -2.351586 -6.346160 -18.663620 1.443700 -0.000000 -7.597200
2.855176 17.100539 -0.357407 147.280849 -87.171939 -138.143539 -9.393922 -0.183946 2.000330 -10.629985 -0.250030 -36.327573 -1.145445 0.651010 31.680569 3.408542 17.621398 -10.786558 -0.499200 0.000000 -6.248800 8.899888 -2.476036 1.700437 13.052098 2.584404 1.134642 2.550501 0.748653 7.601948 -2.057964 -5.659292 -16.934626 1.081800 -0.000000 -9.229900
2.605351 17.128728 -0.393510 146.188709 -86.689627 -137.252169 -9.107919 -0.096862 2.035440 -11.546506 0.419297 -35.495826 -1.464708 0.247202 26.316522 3.178054 16.683453 -9.001901 0.113500 -0.000000 -8.912600 9.271083 -2.640237 1.583599 12.185216 1.526789 3.141521 2.498112 0.842115 5.312042 -1.707754 -4.653132 -15.065520 0.722300 -0.000000 -11.520000
2.355099 17.148838 -0.421019 147.408950 -86.098599 -138.709375 -8.966978 -0.021131 2.038053 -12.400126 1.474798 -34.747236 -1.816280 -0.137399 21.115802 2.857724 15.449175 -7.073708 0.688000 -0.000000 -11.970100 9.523716 -2.830369 1.446187 11.351696 0.366875 5.017498 2.479568 0.899821 3.324433 -1.316346 -3.358921 -13.087633 0.401100 0.000000 -14.527900
2.104052 17.161078 -0.439715 150.089821 -85.425495 -141.644900 -8.952890 0.028399 1.998364 -13.204547 2.916366 -34.187863 -2.189511 -0.496875 16.258641 2.460038 13.893008 -5.123951 1.148700 -0.000000 -15.327700 9.667959 -3.041597 1.306641 10.559509 -0.839112 6.725727 2.495879 0.922773 1.674687 -0.901879 -1.812349 -11.045328 0.152800 -0.000000 -18.188500
1.852034 17.165944 -0.450267 153.549435 -84.658405 -145.353604 -9.030209 0.051178 1.907709 -13.997193 4.698600 -33.902106 -2.574927 -0.819915 11.894904 2.007950 12.007615 -3.284538 1.433000 0.000000 -18.889800 9.724062 -3.254371 1.167455 9.789641 -2.049586 8.235484 2.540169 0.913360 0.394804 -0.481396 -0.049601 -8.968315 0.004100 0.000000 -22.603800
1.598712 17.164246 -0.453643 157.330555 -83.809662 -149.354583 -9.152935 0.051277 1.781537 -14.795338 6.708567 -33.947277 -2.959183 -1.102987 8.126212 1.532591 9.827609 -1.682403 1.510499 0.000000 -22.525800 9.718727 -3.457354 1.049445 9.049744 -3.180384 9.521014 2.602145 0.877538 -0.498479 -0.081152 1.842449 -6.941757 -0.026500 0.000000 -27.350100
1.343924 17.156873 -0.451197 161.074209 -82.909383 -153.264730 -9.276304 0.029796 1.652097 -15.579734 8.746225 -34.312025 -3.324119 -1.351785 4.969107 1.072241 7.479817 -0.411482 1.401100 -0.000000 -26.100400 9.679939 -3.644226 0.966247 8.355093 -4.156228 10.565388 2.670366 0.819768 -1.004188 0.276206 3.759675 -5.052680 0.057900 -0.000000 -31.935400
1.087914 17.144465 -0.444623 164.473952 -81.999879 -156.770275 -9.368930 -0.013337 1.549753 -16.309944 10.596420 -34.913194 -3.651659 -1.574847 2.393160 0.659892 5.135444 0.457645 1.161500 -0.000000 -29.369000 9.635403 -3.814741 0.906947 7.693633 -4.988829 11.366583 2.734333 0.737313 -1.132136 0.583573 5.640664 -3.300510 0.240900 0.000001 -36.657100
0.830516 17.127772 -0.435132 167.545887 -81.117579 -159.857294 -9.426668 -0.082286 1.510093 -16.876568 12.048711 -35.646483 -3.919459 -1.782642 0.310479 0.324073 3.019611 0.912062 0.876300 -0.000001 -32.153000 9.583287 -3.964581 0.879471 7.126116 -5.570369 11.945346 2.787427 0.638328 -0.920175 0.824799 7.330816 -1.789817 0.484200 0.000000 -40.594101
0.572305 17.107060 -0.424437 170.195293 -80.302946 -162.452365 -9.452677 -0.172867 1.539324 -17.221340 13.018393 -36.389831 -4.119342 -1.975810 -1.316535 0.071080 1.256716 0.957862 0.608199 0.000000 -34.245300 9.534208 -4.098171 0.867716 6.643543 -5.938089 12.343345 2.823676 0.519934 -0.409823 1.005723 8.776122 -0.479542 0.756200 0.000000 -44.198100
0.313501 17.082714 -0.413992 172.444231 -79.587427 -164.590248 -9.459739 -0.279267 1.636461 -17.286358 13.472571 -37.042902 -4.246690 -2.150626 -2.527846 -0.098692 -0.061200 0.654251 0.401700 -0.000000 -35.597800 9.486277 -4.216408 0.867870 6.265651 -6.069666 12.622995 2.839506 0.385852 0.337571 1.128502 9.886946 0.616874 1.018601 -0.000000 -47.212900
